name C:\Users\u0101727\Documents\MyRepositories\upper-imu-dc\OpenSim\subject0\MA\ResultsMA\grid_4nodes_9dim\angles_5.mot
datacolumns 10
datarows 37
range 550.01000000 550.37000000
endheader 
time	clav_prot	clav_elev	scapula_abduction	scapula_elevation	scapula_upward_rot	scapula_winging	plane_elv	shoulder_elv	axial_rot	
        550.01000000	        -50.00000000	         10.00000000	        -21.66666667	         10.00000000	         60.00000000	        -10.00000000	        -30.00000000	        100.00000000	        -90.00000000	
        550.02000000	        -38.33333333	         10.00000000	        -21.66666667	         10.00000000	         60.00000000	        -10.00000000	        -30.00000000	        100.00000000	        -90.00000000	
        550.03000000	        -26.66666667	         10.00000000	        -21.66666667	         10.00000000	         60.00000000	        -10.00000000	        -30.00000000	        100.00000000	        -90.00000000	
        550.04000000	        -15.00000000	         10.00000000	        -21.66666667	         10.00000000	         60.00000000	        -10.00000000	        -30.00000000	        100.00000000	        -90.00000000	
        550.05000000	        -50.00000000	         20.00000000	        -21.66666667	         10.00000000	         60.00000000	        -10.00000000	        -30.00000000	        100.00000000	        -90.00000000	
        550.06000000	        -38.33333333	         20.00000000	        -21.66666667	         10.00000000	         60.00000000	        -10.00000000	        -30.00000000	        100.00000000	        -90.00000000	
        550.07000000	        -26.66666667	         20.00000000	        -21.66666667	         10.00000000	         60.00000000	        -10.00000000	        -30.00000000	        100.00000000	        -90.00000000	
        550.08000000	        -15.00000000	         20.00000000	        -21.66666667	         10.00000000	         60.00000000	        -10.00000000	        -30.00000000	        100.00000000	        -90.00000000	
        550.09000000	        -50.00000000	        -10.00000000	         -3.33333333	         10.00000000	         60.00000000	        -10.00000000	        -30.00000000	        100.00000000	        -90.00000000	
        550.10000000	        -38.33333333	        -10.00000000	         -3.33333333	         10.00000000	         60.00000000	        -10.00000000	        -30.00000000	        100.00000000	        -90.00000000	
        550.11000000	        -26.66666667	        -10.00000000	         -3.33333333	         10.00000000	         60.00000000	        -10.00000000	        -30.00000000	        100.00000000	        -90.00000000	
        550.12000000	        -15.00000000	        -10.00000000	         -3.33333333	         10.00000000	         60.00000000	        -10.00000000	        -30.00000000	        100.00000000	        -90.00000000	
        550.13000000	        -50.00000000	          0.00000000	         -3.33333333	         10.00000000	         60.00000000	        -10.00000000	        -30.00000000	        100.00000000	        -90.00000000	
        550.14000000	        -38.33333333	          0.00000000	         -3.33333333	         10.00000000	         60.00000000	        -10.00000000	        -30.00000000	        100.00000000	        -90.00000000	
        550.15000000	        -26.66666667	          0.00000000	         -3.33333333	         10.00000000	         60.00000000	        -10.00000000	        -30.00000000	        100.00000000	        -90.00000000	
        550.16000000	        -15.00000000	          0.00000000	         -3.33333333	         10.00000000	         60.00000000	        -10.00000000	        -30.00000000	        100.00000000	        -90.00000000	
        550.17000000	        -50.00000000	         10.00000000	         -3.33333333	         10.00000000	         60.00000000	        -10.00000000	        -30.00000000	        100.00000000	        -90.00000000	
        550.18000000	        -38.33333333	         10.00000000	         -3.33333333	         10.00000000	         60.00000000	        -10.00000000	        -30.00000000	        100.00000000	        -90.00000000	
        550.19000000	        -26.66666667	         10.00000000	         -3.33333333	         10.00000000	         60.00000000	        -10.00000000	        -30.00000000	        100.00000000	        -90.00000000	
        550.20000000	        -15.00000000	         10.00000000	         -3.33333333	         10.00000000	         60.00000000	        -10.00000000	        -30.00000000	        100.00000000	        -90.00000000	
        550.21000000	        -50.00000000	         20.00000000	         -3.33333333	         10.00000000	         60.00000000	        -10.00000000	        -30.00000000	        100.00000000	        -90.00000000	
        550.22000000	        -38.33333333	         20.00000000	         -3.33333333	         10.00000000	         60.00000000	        -10.00000000	        -30.00000000	        100.00000000	        -90.00000000	
        550.23000000	        -26.66666667	         20.00000000	         -3.33333333	         10.00000000	         60.00000000	        -10.00000000	        -30.00000000	        100.00000000	        -90.00000000	
        550.24000000	        -15.00000000	         20.00000000	         -3.33333333	         10.00000000	         60.00000000	        -10.00000000	        -30.00000000	        100.00000000	        -90.00000000	
        550.25000000	        -50.00000000	        -10.00000000	         15.00000000	         10.00000000	         60.00000000	        -10.00000000	        -30.00000000	        100.00000000	        -90.00000000	
        550.26000000	        -38.33333333	        -10.00000000	         15.00000000	         10.00000000	         60.00000000	        -10.00000000	        -30.00000000	        100.00000000	        -90.00000000	
        550.27000000	        -26.66666667	        -10.00000000	         15.00000000	         10.00000000	         60.00000000	        -10.00000000	        -30.00000000	        100.00000000	        -90.00000000	
        550.28000000	        -15.00000000	        -10.00000000	         15.00000000	         10.00000000	         60.00000000	        -10.00000000	        -30.00000000	        100.00000000	        -90.00000000	
        550.29000000	        -50.00000000	          0.00000000	         15.00000000	         10.00000000	         60.00000000	        -10.00000000	        -30.00000000	        100.00000000	        -90.00000000	
        550.30000000	        -38.33333333	          0.00000000	         15.00000000	         10.00000000	         60.00000000	        -10.00000000	        -30.00000000	        100.00000000	        -90.00000000	
        550.31000000	        -26.66666667	          0.00000000	         15.00000000	         10.00000000	         60.00000000	        -10.00000000	        -30.00000000	        100.00000000	        -90.00000000	
        550.32000000	        -15.00000000	          0.00000000	         15.00000000	         10.00000000	         60.00000000	        -10.00000000	        -30.00000000	        100.00000000	        -90.00000000	
        550.33000000	        -50.00000000	         10.00000000	         15.00000000	         10.00000000	         60.00000000	        -10.00000000	        -30.00000000	        100.00000000	        -90.00000000	
        550.34000000	        -38.33333333	         10.00000000	         15.00000000	         10.00000000	         60.00000000	        -10.00000000	        -30.00000000	        100.00000000	        -90.00000000	
        550.35000000	        -26.66666667	         10.00000000	         15.00000000	         10.00000000	         60.00000000	        -10.00000000	        -30.00000000	        100.00000000	        -90.00000000	
        550.36000000	        -15.00000000	         10.00000000	         15.00000000	         10.00000000	         60.00000000	        -10.00000000	        -30.00000000	        100.00000000	        -90.00000000	
        550.37000000	        -50.00000000	         20.00000000	         15.00000000	         10.00000000	         60.00000000	        -10.00000000	        -30.00000000	        100.00000000	        -90.00000000	
